<svg viewBox="0 0 320 580" xmlns="http://www.w3.org/2000/svg" font-family="Inter, Arial, sans-serif">
  <!-- Phone frame -->
  <rect width="320" height="580" rx="32" fill="#1A1A2E"/>
  <rect x="8" y="8" width="304" height="564" rx="26" fill="#F2F2F2"/>

  <!-- Status bar -->
  <rect x="8" y="8" width="304" height="40" rx="26" fill="#1A3ED4"/>
  <rect x="8" y="34" width="304" height="14" fill="#1A3ED4"/>
  <text x="30" y="30" fill="white" font-size="11" font-weight="600">9:41</text>
  <text x="255" y="30" fill="white" font-size="10">●●●</text>

  <!-- Header -->
  <rect x="8" y="48" width="304" height="70" fill="#1A3ED4"/>
  <text x="28" y="78" fill="white" font-size="16" font-weight="700">🏥 AI Тренажёр</text>
  <text x="28" y="98" fill="#B3C4F7" font-size="12">Добро пожаловать, Анна!</text>

  <!-- Body -->
  <rect x="8" y="118" width="304" height="454" fill="#F2F2F2"/>

  <!-- Section title -->
  <text x="28" y="150" fill="#333" font-size="13" font-weight="600">Доступные тренировки</text>

  <!-- Card 1 -->
  <rect x="20" y="160" width="280" height="100" rx="16" fill="white" filter="drop-shadow(0 2px 8px rgba(0,0,0,0.08))"/>
  <rect x="20" y="160" width="6" height="100" rx="3" fill="#1A3ED4"/>
  <text x="38" y="185" fill="#1A3ED4" font-size="11" font-weight="600">СЕПСИС</text>
  <text x="38" y="205" fill="#111" font-size="14" font-weight="700">Протокол сепсиса v2.1</text>
  <text x="38" y="222" fill="#888" font-size="11">116 заданий · 3 типа упражнений</text>
  <rect x="38" y="233" width="190" height="6" rx="3" fill="#E8EDFB"/>
  <rect x="38" y="233" width="95" height="6" rx="3" fill="#1A3ED4"/>
  <rect x="200" y="226" width="82" height="26" rx="13" fill="#1A3ED4"/>
  <text x="241" y="244" fill="white" font-size="11" font-weight="600" text-anchor="middle">Начать →</text>

  <!-- Card 2 -->
  <rect x="20" y="274" width="280" height="100" rx="16" fill="white" filter="drop-shadow(0 2px 8px rgba(0,0,0,0.08))"/>
  <rect x="20" y="274" width="6" height="100" rx="3" fill="#1E8C45"/>
  <text x="38" y="299" fill="#1E8C45" font-size="11" font-weight="600">ТЕРАПИЯ</text>
  <text x="38" y="319" fill="#111" font-size="14" font-weight="700">СОП: Инфузионная терапия</text>
  <text x="38" y="336" fill="#888" font-size="11">48 заданий · обновлён 12.04</text>
  <rect x="38" y="347" width="190" height="6" rx="3" fill="#E8EDFB"/>
  <rect x="38" y="347" width="152" height="6" rx="3" fill="#1E8C45"/>
  <rect x="200" y="340" width="82" height="26" rx="13" fill="#1E8C45"/>
  <text x="241" y="358" fill="white" font-size="11" font-weight="600" text-anchor="middle">Начать →</text>

  <!-- Card 3 -->
  <rect x="20" y="388" width="280" height="100" rx="16" fill="white" filter="drop-shadow(0 2px 8px rgba(0,0,0,0.08))"/>
  <rect x="20" y="388" width="6" height="100" rx="3" fill="#F5820D"/>
  <text x="38" y="413" fill="#F5820D" font-size="11" font-weight="600">ХИРУРГИЯ</text>
  <text x="38" y="433" fill="#111" font-size="14" font-weight="700">Хирургический чеклист</text>
  <text x="38" y="450" fill="#888" font-size="11">62 задания · новый</text>
  <rect x="38" y="461" width="190" height="6" rx="3" fill="#E8EDFB"/>
  <rect x="38" y="461" width="20" height="6" rx="3" fill="#F5820D"/>
  <rect x="200" y="454" width="82" height="26" rx="13" fill="#F5820D"/>
  <text x="241" y="472" fill="white" font-size="11" font-weight="600" text-anchor="middle">Начать →</text>

  <!-- Bottom nav -->
  <rect x="8" y="522" width="304" height="50" rx="0" fill="white"/>
  <rect x="8" y="563" width="304" height="9" rx="0" fill="white"/>
  <rect x="8" y="563" width="304" height="9" rx="26" fill="white"/>
  <text x="92" y="552" fill="#1A3ED4" font-size="10" font-weight="700" text-anchor="middle">📚 Тренировки</text>
  <text x="228" y="552" fill="#AAA" font-size="10" text-anchor="middle">👤 Профиль</text>
  <rect x="8" y="522" width="304" height="1" fill="#EEE"/>
</svg>
